<svg width="403" height="403" viewBox="0 0 403 403" fill="none" xmlns="http://www.w3.org/2000/svg">
<path d="M254.369 126.895C254.369 115.138 262.491 104.812 274.147 103.281C278.485 102.671 282.858 102.332 287.238 102.268C289.977 102.268 293.031 102.469 296.136 102.79C310.87 104.301 322.066 116.096 324.383 130.723C326.732 145.552 329.175 164.525 329.175 179.335C329.175 196.991 325.712 220.542 323.067 235.957C321.392 245.685 313.937 253.374 304.177 254.853C298.547 255.71 292.351 256.415 287.238 256.415C283.271 256.415 278.649 255.987 274.147 255.401C262.498 253.871 254.369 243.538 254.369 231.788V126.888V126.895Z" fill="#0A28C8"/>
<path fill-rule="evenodd" clip-rule="evenodd" d="M241.775 231.788V126.888C241.775 109.547 253.884 93.2315 272.51 90.7883C277.258 90.1649 282.484 89.6675 287.238 89.6675C290.55 89.6675 294.064 89.9068 297.427 90.2531C318.477 92.4192 333.715 109.144 336.82 128.746C339.187 143.669 341.769 163.473 341.769 179.335C341.769 198.163 338.123 222.639 335.472 238.085C332.935 252.864 321.487 264.954 306.066 267.302C300.241 268.184 293.308 269.002 287.238 269.002C282.484 269.002 277.258 268.499 272.51 267.882C253.884 265.438 241.775 249.123 241.775 231.775V231.788ZM274.147 103.281C262.498 104.811 254.369 115.138 254.369 126.895V231.788C254.369 243.544 262.491 253.877 274.147 255.401C278.649 255.993 283.271 256.421 287.238 256.421C292.351 256.421 298.547 255.716 304.177 254.86C313.937 253.38 321.392 245.691 323.067 235.963C325.712 220.548 329.175 196.998 329.175 179.348C329.175 164.531 326.732 145.559 324.39 130.729C322.066 116.102 310.87 104.314 296.142 102.796C293.031 102.482 289.977 102.274 287.238 102.274C283.271 102.274 278.649 102.689 274.147 103.281Z" fill="black"/>
<path fill-rule="evenodd" clip-rule="evenodd" d="M254.369 229.433V231.781C254.369 243.538 262.491 253.871 274.147 255.395C278.649 255.987 283.271 256.415 287.238 256.415C292.351 256.415 298.547 255.71 304.177 254.853C313.937 253.373 321.392 245.685 323.067 235.956C325.712 220.542 329.175 196.991 329.175 179.341C329.175 164.525 326.732 145.552 324.39 130.723C323.595 125.659 321.694 120.833 318.823 116.586C320.92 130.565 322.879 147.177 322.879 160.45C322.879 178.101 319.415 201.651 316.771 217.059C315.096 226.794 307.64 234.483 297.88 235.963C292.251 236.819 286.054 237.524 280.941 237.524C276.974 237.524 272.352 237.096 267.85 236.51C262.657 235.83 257.877 233.321 254.369 229.433Z" fill="#061B86"/>
<path fill-rule="evenodd" clip-rule="evenodd" d="M299.542 112.431C300.231 111.972 301.003 111.653 301.814 111.493C302.626 111.333 303.461 111.334 304.272 111.496C305.083 111.659 305.854 111.98 306.541 112.44C307.228 112.901 307.818 113.493 308.276 114.181L303.037 117.676C308.276 114.181 308.276 114.181 308.282 114.187L308.289 114.2L308.308 114.231L308.358 114.301C308.575 114.63 308.78 114.966 308.975 115.308C309.353 115.963 309.882 116.895 310.493 118.104C311.72 120.516 313.314 124.036 314.894 128.607C318.049 137.763 321.141 151.15 321.141 168.441C321.141 170.111 320.477 171.713 319.296 172.894C318.115 174.075 316.514 174.738 314.844 174.738C313.174 174.738 311.572 174.075 310.391 172.894C309.21 171.713 308.547 170.111 308.547 168.441C308.547 152.674 305.732 140.672 302.987 132.713C301.953 129.664 300.712 126.689 299.272 123.809C298.825 122.931 298.346 122.07 297.836 121.227L297.786 121.145M297.786 121.145L297.792 121.158Z" fill="#1439FB"/>
<path d="M113.281 117.626C113.281 70.0527 149.507 31.4844 194.183 31.4844C238.859 31.4844 275.079 70.0527 275.079 117.626C275.079 117.626 281.987 164.443 283.592 194.699C286.703 253.141 275.079 344.313 275.079 344.313C275.079 359.337 263.644 371.516 249.533 371.516H232.506C218.401 371.516 206.959 359.337 206.959 344.313V302.439C195.602 304.359 183.958 303.694 172.893 300.493V335.246C172.893 350.27 169.978 362.448 155.867 362.448H138.84C119.678 362.448 114.326 348.973 113.293 332.979C109.03 267.239 96.2604 260.439 96.2604 221.902C96.2604 183.365 113.293 117.626 113.293 117.626H113.281Z" fill="#1439FB"/>
<path fill-rule="evenodd" clip-rule="evenodd" d="M275.073 344.313C275.073 359.337 263.638 371.516 249.526 371.516H232.5C218.395 371.516 206.953 359.337 206.953 344.313V302.439C202.848 303.132 198.641 303.497 194.359 303.509H194.177C186.976 303.505 179.812 302.49 172.893 300.493V335.246C172.893 350.27 169.972 362.448 155.86 362.448H138.833C119.672 362.448 114.32 348.973 113.287 332.979C111.026 298.138 106.379 279.852 102.507 264.626C99.075 251.119 96.254 240.018 96.254 221.902C96.254 183.365 113.287 117.626 113.287 117.626C113.281 70.0527 149.5 31.4844 194.177 31.4844C238.853 31.4844 275.073 70.0527 275.073 117.626C275.073 117.626 281.98 164.443 283.586 194.699C286.697 253.141 275.073 344.313 275.073 344.313ZM287.666 116.681C287.188 63.3277 246.233 18.8906 194.177 18.8906C142.341 18.8906 101.525 62.9499 100.706 116.001L100.328 117.487C97.4347 129.212 94.7977 140.998 92.4192 152.838C88.1499 174.153 83.6603 201.286 83.6603 221.902C83.6603 241.611 86.8213 254.029 90.272 267.617L90.9647 270.325C94.5602 284.556 98.6468 301.897 100.719 333.797C101.285 342.537 103.086 352.795 109.037 361.063C115.623 370.212 125.849 375.042 138.833 375.042H155.86C161.231 375.042 166.433 373.864 171.029 371.062C175.639 368.254 178.8 364.325 180.903 360.169C184.826 352.424 185.487 343.041 185.487 335.246V315.681C188.346 315.958 191.249 316.103 194.177 316.103H194.359V344.313C194.359 365.534 210.7 384.109 232.5 384.109H249.526C271.03 384.109 287.226 366.037 287.66 345.17L287.704 344.823L288.069 341.775C290.002 325.37 291.661 308.932 293.044 292.471C295.575 262.271 297.767 224.15 296.167 194.032C295.336 178.435 293.157 158.801 291.224 143.26C290.118 134.392 288.93 125.534 287.66 116.687L287.666 116.681Z" fill="black"/>
<path fill-rule="evenodd" clip-rule="evenodd" d="M113.482 111.518C113.356 113.539 113.287 115.573 113.287 117.626C113.287 117.626 108.313 136.8 103.747 160.508C106.613 165.385 110.646 169.475 115.483 172.409C120.32 175.344 125.81 177.031 131.46 177.32L193.295 180.613C202.381 181.096 211.368 178.529 218.828 173.318C226.287 168.107 231.791 160.553 234.464 151.856C242.26 126.479 224.137 100.536 197.627 99.1193L152.416 96.7139C145.252 96.3312 138.088 97.4511 131.383 100.002C124.678 102.552 118.58 106.477 113.482 111.524V111.518Z" fill="#0A28C8"/>
<path fill-rule="evenodd" clip-rule="evenodd" d="M116.347 348.337C119.735 356.737 126.359 362.448 138.827 362.448H155.86C169.965 362.448 172.893 350.27 172.893 335.246V300.493C179.81 302.497 186.976 303.512 194.177 303.509H194.359V289.845C183.002 291.765 171.358 291.1 160.293 287.899V322.652C160.293 337.676 157.378 349.854 143.267 349.854H126.24C122.418 349.854 119.143 349.319 116.354 348.33L116.347 348.337ZM209.743 356.686C213.968 365.489 222.576 371.516 232.5 371.516H249.526C263.631 371.516 275.073 359.337 275.073 344.313C275.073 344.313 286.697 253.141 283.586 194.699C281.98 164.443 275.073 117.626 275.073 117.626C275.073 89.5478 262.46 64.6059 242.934 48.8826C255.118 63.9636 262.479 83.5784 262.479 105.032C262.479 105.032 269.387 151.849 270.992 182.106C274.103 240.547 262.479 331.719 262.479 331.719C262.479 346.744 251.044 358.922 236.933 358.922H219.906C216.291 358.922 212.853 358.122 209.743 356.686Z" fill="#0A28C8"/>
<path fill-rule="evenodd" clip-rule="evenodd" d="M196.066 42.7558C196.24 43.5645 196.253 44.3996 196.104 45.2133C195.955 46.027 195.647 46.8034 195.198 47.4981C194.749 48.1928 194.167 48.7922 193.486 49.2621C192.805 49.732 192.039 50.0631 191.23 50.2365C167.144 55.3999 151.434 71.6144 141.472 90.5239C131.46 109.528 127.581 130.717 127.115 144.261C127.102 144.613 127.06 144.962 126.989 145.307C125.497 152.586 123.249 164.323 121.385 175.828C119.483 187.502 118.066 198.389 118.066 204.258C118.066 220.221 119.263 240.012 126.618 257.278C127.272 258.814 127.29 260.548 126.666 262.097C126.043 263.646 124.829 264.885 123.293 265.539C121.756 266.194 120.023 266.211 118.473 265.588C116.924 264.964 115.686 263.751 115.031 262.214C106.631 242.486 105.473 220.561 105.473 204.252C105.473 197.212 107.072 185.342 108.949 173.806C110.806 162.365 113.029 150.728 114.553 143.285C115.151 128.217 119.401 105.397 130.333 84.6489C141.44 63.5544 159.777 44.097 188.591 37.9261C190.223 37.5766 191.926 37.8889 193.328 38.7945C194.729 39.7 195.714 41.1248 196.066 42.7558Z" fill="#4663FF"/>
<path d="M87.9043 114.1C91.2761 103.131 98.2167 93.6044 107.623 87.0328C117.03 80.4613 128.363 77.2219 139.822 77.8296L185.034 80.2287C211.543 81.6455 229.666 107.589 221.87 132.965C219.197 141.664 213.692 149.219 206.231 154.429C198.771 159.64 189.782 162.207 180.695 161.723L118.866 158.43C96.5814 157.246 81.343 135.427 87.898 114.1H87.9043Z" fill="#54B0D7"/>
<path fill-rule="evenodd" clip-rule="evenodd" d="M140.496 65.2481L185.707 67.6535C220.391 69.4985 244.111 103.458 233.904 136.667C230.405 148.049 223.202 157.934 213.44 164.752C203.678 171.57 191.918 174.93 180.028 174.297L118.199 171.004C87.728 169.386 66.898 139.558 75.8584 110.397C80.0543 96.7406 88.6952 84.8793 100.407 76.6986C112.119 68.5179 126.23 64.4874 140.496 65.2481ZM139.822 77.823C128.362 77.2128 117.027 80.451 107.619 87.0229C98.2105 93.5947 91.2691 103.123 87.898 114.093C81.343 135.427 96.5814 157.245 118.872 158.429L180.695 161.723C189.782 162.207 198.771 159.64 206.231 154.429C213.692 149.218 219.197 141.663 221.87 132.965C229.666 107.588 211.543 81.6452 185.034 80.2284L139.822 77.823Z" fill="black"/>
<path fill-rule="evenodd" clip-rule="evenodd" d="M90.9458 141.264C93.7892 146.237 97.8368 150.415 102.717 153.414C107.596 156.413 113.152 158.138 118.872 158.43L180.695 161.723C189.782 162.207 198.771 159.64 206.231 154.429C213.692 149.219 219.197 141.664 221.87 132.965C227.097 115.951 220.674 98.6848 207.891 88.7231C210.981 93.6689 212.967 99.223 213.715 105.006C214.463 110.79 213.954 116.666 212.224 122.235C209.55 130.934 204.045 138.489 196.585 143.7C189.124 148.91 180.136 151.477 171.048 150.993L109.226 147.7C102.638 147.371 96.2869 145.135 90.9458 141.264Z" fill="#4088A3"/>
<path d="M98.7853 102.52C102.16 92.4006 116.958 83.1064 129.665 83.4779C142.372 83.8494 142.171 82.3067 166.03 84.5484C189.895 86.7775 196.853 99.4845 192.055 113.835C188.68 123.96 177.603 129.262 164.896 128.885C152.195 128.519 142.272 131.643 124.558 131.643C106.852 131.643 93.9871 116.877 98.7853 102.52Z" fill="#71D8F9"/>
<path fill-rule="evenodd" clip-rule="evenodd" d="M114.968 102.375L112.613 96.5375C111.064 97.1621 109.827 98.3765 109.173 99.9134C108.52 101.45 108.503 103.184 109.128 104.733C109.753 106.282 110.967 107.519 112.504 108.173C114.041 108.827 115.774 108.843 117.323 108.218H117.311L117.386 108.187L117.796 108.042C118.173 107.903 118.772 107.702 119.565 107.463C121.158 106.978 123.513 106.348 126.473 105.8C132.411 104.705 140.666 103.974 149.935 105.404C151.586 105.658 153.27 105.247 154.617 104.259C155.965 103.272 156.865 101.79 157.12 100.139C157.374 98.4885 156.963 96.8041 155.976 95.4567C154.988 94.1093 153.506 93.2093 151.855 92.9546C142.673 91.5676 133.324 91.723 124.193 93.4143C121.394 93.9238 118.625 94.5902 115.9 95.4104C114.894 95.7169 113.896 96.0528 112.909 96.4179L112.72 96.4935L112.657 96.5187L112.632 96.5312H112.62L114.968 102.375Z" fill="#EDFEFF"/>
<path fill-rule="evenodd" clip-rule="evenodd" d="M144.11 296.306C144.461 295.557 144.956 294.884 145.567 294.327C146.178 293.769 146.893 293.338 147.67 293.057C148.448 292.775 149.274 292.65 150.1 292.688C150.926 292.726 151.736 292.926 152.485 293.277C159.96 296.778 169.474 298.579 178.819 299.353C188.081 300.115 196.721 299.844 202.161 299.467C202.993 299.396 203.831 299.492 204.626 299.749C205.42 300.005 206.156 300.417 206.79 300.96C207.424 301.504 207.943 302.168 208.318 302.914C208.693 303.66 208.916 304.474 208.973 305.307C209.031 306.14 208.922 306.976 208.654 307.766C208.385 308.557 207.962 309.286 207.409 309.912C206.856 310.537 206.184 311.047 205.432 311.41C204.68 311.774 203.864 311.984 203.03 312.029C197.168 312.438 187.861 312.734 177.78 311.903C167.787 311.072 156.566 309.094 147.139 304.674C146.39 304.324 145.717 303.829 145.159 303.218C144.601 302.608 144.168 301.893 143.886 301.116C143.604 300.338 143.479 299.512 143.516 298.686C143.553 297.859 143.753 297.048 144.104 296.299L144.11 296.306Z" fill="black"/>
<path fill-rule="evenodd" clip-rule="evenodd" d="M216.921 283C218.582 283.17 220.107 283.993 221.161 285.287C222.216 286.581 222.713 288.241 222.544 289.902C221.757 297.848 221.266 305.821 221.071 313.805C220.863 323.137 221.197 331.537 222.374 336.102C222.785 337.718 222.539 339.43 221.688 340.865C220.838 342.299 219.454 343.337 217.839 343.752C216.225 344.168 214.511 343.925 213.075 343.079C211.639 342.233 210.596 340.851 210.177 339.238C208.521 332.783 208.269 322.752 208.477 313.521C208.691 304.044 209.409 294.53 210.013 288.623C210.098 287.8 210.343 287.002 210.736 286.274C211.129 285.546 211.661 284.903 212.302 284.381C212.944 283.859 213.682 283.468 214.474 283.231C215.267 282.994 216.098 282.916 216.921 283Z" fill="#4663FF"/>
</svg>
